<mxfile host="Electron" agent="Mozilla/5.0 (X11; Linux x86_64) AppleWebKit/537.36 (KHTML, like Gecko) draw.io/26.2.2 Chrome/134.0.6998.178 Electron/35.1.2 Safari/537.36" version="26.2.2">
  <diagram name="Page-1" id="rumqVNAoI3cSyf27jc9k">
    <mxGraphModel dx="2785" dy="2196" grid="1" gridSize="10" guides="1" tooltips="1" connect="1" arrows="1" fold="1" page="1" pageScale="1" pageWidth="1700" pageHeight="1100" math="0" shadow="0">
      <root>
        <mxCell id="0" />
        <mxCell id="1" parent="0" />
        <mxCell id="-hpIVWVpJWwLuPx6lPaj-3" value="" style="rounded=0;whiteSpace=wrap;html=1;" parent="1" vertex="1">
          <mxGeometry x="20" y="80" width="490" height="550" as="geometry" />
        </mxCell>
        <mxCell id="-hpIVWVpJWwLuPx6lPaj-4" value="" style="rounded=0;whiteSpace=wrap;html=1;" parent="1" vertex="1">
          <mxGeometry x="930" y="80" width="750" height="550" as="geometry" />
        </mxCell>
        <mxCell id="-hpIVWVpJWwLuPx6lPaj-5" value="&lt;h1 style=&quot;margin-top: 0px;&quot;&gt;Hardware&lt;/h1&gt;" style="text;html=1;whiteSpace=wrap;overflow=hidden;rounded=0;" parent="1" vertex="1">
          <mxGeometry x="20" y="30" width="170" height="30" as="geometry" />
        </mxCell>
        <mxCell id="-hpIVWVpJWwLuPx6lPaj-6" value="&lt;h1 style=&quot;margin-top: 0px;&quot;&gt;Software&lt;/h1&gt;" style="text;html=1;whiteSpace=wrap;overflow=hidden;rounded=0;" parent="1" vertex="1">
          <mxGeometry x="930" y="30" width="170" height="30" as="geometry" />
        </mxCell>
        <mxCell id="-hpIVWVpJWwLuPx6lPaj-7" value="" style="rounded=0;whiteSpace=wrap;html=1;" parent="1" vertex="1">
          <mxGeometry x="930" y="740" width="750" height="320" as="geometry" />
        </mxCell>
        <mxCell id="-hpIVWVpJWwLuPx6lPaj-14" value="&lt;h1 style=&quot;margin-top: 0px;&quot;&gt;User Input&lt;/h1&gt;&lt;div&gt;&lt;br&gt;&lt;/div&gt;" style="text;html=1;whiteSpace=wrap;overflow=hidden;rounded=0;" parent="1" vertex="1">
          <mxGeometry x="930" y="680" width="160" height="40" as="geometry" />
        </mxCell>
        <mxCell id="-hpIVWVpJWwLuPx6lPaj-15" value="" style="rounded=0;whiteSpace=wrap;html=1;" parent="1" vertex="1">
          <mxGeometry x="970" y="780" width="220" height="240" as="geometry" />
        </mxCell>
        <mxCell id="-hpIVWVpJWwLuPx6lPaj-16" value="" style="rounded=0;whiteSpace=wrap;html=1;" parent="1" vertex="1">
          <mxGeometry x="1260" y="780" width="370" height="240" as="geometry" />
        </mxCell>
        <mxCell id="-hpIVWVpJWwLuPx6lPaj-17" value="&lt;h1 style=&quot;margin-top: 0px;&quot;&gt;Keyboard&lt;/h1&gt;&lt;div&gt;&lt;br&gt;&lt;/div&gt;" style="text;html=1;whiteSpace=wrap;overflow=hidden;rounded=0;" parent="1" vertex="1">
          <mxGeometry x="970" y="740" width="130" height="40" as="geometry" />
        </mxCell>
        <mxCell id="-hpIVWVpJWwLuPx6lPaj-18" value="&lt;h1 style=&quot;margin-top: 0px;&quot;&gt;Monitor&lt;/h1&gt;" style="text;html=1;whiteSpace=wrap;overflow=hidden;rounded=0;" parent="1" vertex="1">
          <mxGeometry x="1260" y="740" width="130" height="40" as="geometry" />
        </mxCell>
        <mxCell id="-hpIVWVpJWwLuPx6lPaj-32" value="Initial x, y, v&lt;sub&gt;x&lt;/sub&gt;, v&lt;sub&gt;y&lt;/sub&gt;, m, confirmation to start&lt;sub&gt;&amp;nbsp;&lt;/sub&gt;" style="text;html=1;align=center;verticalAlign=middle;whiteSpace=wrap;rounded=0;" parent="1" vertex="1">
          <mxGeometry x="350" y="10" width="135" height="60" as="geometry" />
        </mxCell>
        <mxCell id="-hpIVWVpJWwLuPx6lPaj-36" value="&lt;span style=&quot;text-wrap-mode: nowrap;&quot;&gt;Timestep&amp;nbsp;&lt;/span&gt;x, y, v&lt;sub&gt;x&lt;/sub&gt;, v&lt;sub&gt;y&lt;/sub&gt;&lt;span style=&quot;text-wrap-mode: nowrap;&quot;&gt;&amp;nbsp;&lt;/span&gt;" style="text;html=1;align=center;verticalAlign=middle;whiteSpace=wrap;rounded=0;" parent="1" vertex="1">
          <mxGeometry x="210" y="20" width="120" height="20" as="geometry" />
        </mxCell>
        <mxCell id="CpTM82QqQ-CoCST9rDbI-1" value="" style="rounded=1;whiteSpace=wrap;html=1;" vertex="1" parent="1">
          <mxGeometry x="630" y="90" width="160" height="540" as="geometry" />
        </mxCell>
        <mxCell id="CpTM82QqQ-CoCST9rDbI-2" value="&lt;h1 style=&quot;margin-top: 0px;&quot;&gt;Avalon Bus&lt;/h1&gt;" style="text;html=1;whiteSpace=wrap;overflow=hidden;rounded=0;" vertex="1" parent="1">
          <mxGeometry x="640" y="335" width="150" height="40" as="geometry" />
        </mxCell>
        <mxCell id="CpTM82QqQ-CoCST9rDbI-3" value="" style="rounded=0;whiteSpace=wrap;html=1;" vertex="1" parent="1">
          <mxGeometry x="60" y="120" width="410" height="230" as="geometry" />
        </mxCell>
        <mxCell id="CpTM82QqQ-CoCST9rDbI-4" value="" style="rounded=0;whiteSpace=wrap;html=1;" vertex="1" parent="1">
          <mxGeometry x="60" y="410" width="410" height="190" as="geometry" />
        </mxCell>
        <mxCell id="CpTM82QqQ-CoCST9rDbI-5" value="&lt;h1 style=&quot;margin-top: 0px;&quot;&gt;Calculation Accelerator&lt;/h1&gt;" style="text;html=1;whiteSpace=wrap;overflow=hidden;rounded=0;" vertex="1" parent="1">
          <mxGeometry x="60" y="80" width="310" height="30" as="geometry" />
        </mxCell>
        <mxCell id="CpTM82QqQ-CoCST9rDbI-7" value="&lt;h1 style=&quot;margin-top: 0px;&quot;&gt;Visual Interface&lt;/h1&gt;" style="text;html=1;whiteSpace=wrap;overflow=hidden;rounded=0;" vertex="1" parent="1">
          <mxGeometry x="60" y="370" width="310" height="30" as="geometry" />
        </mxCell>
        <mxCell id="CpTM82QqQ-CoCST9rDbI-8" value="" style="rounded=0;whiteSpace=wrap;html=1;" vertex="1" parent="1">
          <mxGeometry x="30" y="800" width="440" height="230" as="geometry" />
        </mxCell>
        <mxCell id="CpTM82QqQ-CoCST9rDbI-9" value="&lt;h1 style=&quot;margin-top: 0px;&quot;&gt;VGA Monitor&lt;/h1&gt;&lt;div&gt;&lt;br&gt;&lt;/div&gt;" style="text;html=1;whiteSpace=wrap;overflow=hidden;rounded=0;" vertex="1" parent="1">
          <mxGeometry x="30" y="760" width="150" height="30" as="geometry" />
        </mxCell>
      </root>
    </mxGraphModel>
  </diagram>
</mxfile>
